<?xml version="1.0" encoding="utf-8"?>
<!-- Generator: Adobe Illustrator 16.0.0, SVG Export Plug-In . SVG Version: 6.00 Build 0)  -->
<!DOCTYPE svg PUBLIC "-//W3C//DTD SVG 1.1//EN" "http://www.w3.org/Graphics/SVG/1.1/DTD/svg11.dtd">
<svg version="1.1" id="Layer_1" xmlns:serif="http://www.serif.com/"
	 xmlns="http://www.w3.org/2000/svg" xmlns:xlink="http://www.w3.org/1999/xlink" x="0px" y="0px" width="32px" height="32px"
	 viewBox="484 484 32 32" enable-background="new 484 484 32 32" xml:space="preserve">
<path d="M499.939,516h0.014h-0.005H499.939z M500.052,516h-0.005h0.014H500.052z M499.89,516h0.015h-0.009H499.89z M500.104,516
	h-0.009h0.015H500.104z M499.843,515.999h0.01h-0.008H499.843z M500.155,515.999h-0.008h0.01H500.155z M500.207,515.999h-0.003
	h0.014H500.207L500.207,515.999z M499.783,515.999h0.014h-0.003H499.783L499.783,515.999z M500.258,515.998h-0.008h0.017H500.258
	L500.258,515.998z M499.733,515.998h0.017h-0.008H499.733L499.733,515.998z M500.31,515.997h-0.011h0.016H500.31z M499.686,515.997
	h0.016h-0.011H499.686L499.686,515.997z M499.627,515.996h0.014h-0.002H499.627L499.627,515.996z M500.361,515.996h-0.002h0.014
	H500.361z M499.576,515.994l0.02,0.001h-0.008L499.576,515.994z M500.413,515.995h-0.008l0.02-0.001L500.413,515.995z
	 M500.464,515.993l-0.013,0.001l0.02-0.001H500.464L500.464,515.993z M499.529,515.993l0.02,0.001l-0.013-0.001H499.529
	L499.529,515.993z M499.484,515.992h0.014H499.484l-0.012-0.001L499.484,515.992z M500.516,515.992h-0.014H500.516l0.012-0.001
	L500.516,515.992z M500.566,515.99h-0.007l0.021-0.001L500.566,515.99z M499.418,515.989l0.022,0.001h-0.007L499.418,515.989z
	 M499.372,515.988h0.023h-0.013H499.372z M500.618,515.988h-0.013h0.022H500.618z M499.326,515.986l0.022,0.001l-0.018-0.001
	H499.326L499.326,515.986z M500.669,515.986l-0.017,0.001l0.021-0.001H500.669L500.669,515.986z M499.262,515.983l0.023,0.001
	h-0.006L499.262,515.983z M500.721,515.984h-0.006l0.023-0.001L500.721,515.984L500.721,515.984z M499.215,515.981l0.024,0.001
	l-0.011-0.001H499.215z M500.771,515.981l-0.012,0.001l0.025-0.001H500.771z M499.17,515.979l0.025,0.002l-0.018-0.001
	L499.17,515.979z M500.823,515.979l-0.018,0.001l0.024-0.002L500.823,515.979z M500.874,515.977l-0.022,0.001l0.02-0.001
	l0.023-0.001L500.874,515.977L500.874,515.977z M499.128,515.977l0.021,0.001l-0.023-0.001l-0.021-0.001L499.128,515.977
	L499.128,515.977z M500.925,515.974l-0.01,0.001l0.025-0.002L500.925,515.974z M499.06,515.973l0.025,0.002l-0.01-0.001
	L499.06,515.973z M499.015,515.97l0.025,0.002l-0.016-0.001L499.015,515.97L499.015,515.97z M500.976,515.971l-0.016,0.001
	l0.025-0.002L500.976,515.971L500.976,515.971z M498.972,515.968l0.022,0.001l-0.021-0.001l-0.021-0.002L498.972,515.968z
	 M501.027,515.968l-0.021,0.001L501.027,515.968l0.021-0.002L501.027,515.968L501.027,515.968z M501.078,515.964l-0.008,0.001
	l0.024-0.002L501.078,515.964L501.078,515.964z M498.906,515.963l0.024,0.002l-0.007-0.001L498.906,515.963z M498.86,515.96
	l0.024,0.002l-0.013-0.001L498.86,515.96z M501.129,515.961l-0.014,0.001l0.024-0.002L501.129,515.961z M498.815,515.957
	l0.022,0.001l-0.017-0.001H498.815z M501.18,515.957l-0.018,0.001l0.022-0.001H501.18L501.18,515.957z M498.755,515.952l0.019,0.002
	l-0.005-0.001L498.755,515.952z M501.23,515.953l-0.005,0.001l0.02-0.002L501.23,515.953z M501.281,515.949l-0.01,0.001l0.02-0.002
	L501.281,515.949z M498.708,515.948l0.02,0.002l-0.009-0.001L498.708,515.948L498.708,515.948z M498.664,515.945l0.016,0.001
	l-0.011-0.001H498.664z M501.332,515.945l-0.012,0.001l0.017-0.001H501.332z M498.613,515.94l0.005,0.001h-0.001L498.613,515.94
	L498.613,515.94z M501.383,515.941L501.383,515.941l0.004-0.001L501.383,515.941L501.383,515.941z M501.433,515.937h-0.004
	l0.011-0.001L501.433,515.937L501.433,515.937z M498.56,515.936l0.011,0.001h-0.004L498.56,515.936L498.56,515.936z
	 M498.513,515.932l0.009,0.001l-0.005-0.001H498.513z M501.483,515.932l-0.005,0.001l0.008-0.001H501.483z M497.5,515.806
	C489.855,514.604,484,507.98,484,500c0-8.831,7.169-16,16-16c8.831,0,16,7.169,16,16c0,7.98-5.855,14.604-13.5,15.806v-11.181h3.729
	l0.709-4.625H502.5v-3.001c0-1.265,0.62-2.499,2.607-2.499h2.018v-3.938c0,0-1.831-0.313-3.582-0.313
	c-3.654,0-6.043,2.215-6.043,6.225V500h-4.063v4.625h4.063V515.806z"/>
</svg>
