<?xml version="1.0" encoding="utf-8"?>
<!-- Generator: Adobe Illustrator 16.0.0, SVG Export Plug-In . SVG Version: 6.00 Build 0)  -->
<!DOCTYPE svg PUBLIC "-//W3C//DTD SVG 1.1//EN" "http://www.w3.org/Graphics/SVG/1.1/DTD/svg11.dtd">
<svg version="1.1" id="Layer_1" xmlns:serif="http://www.serif.com/"
	 xmlns="http://www.w3.org/2000/svg" xmlns:xlink="http://www.w3.org/1999/xlink" x="0px" y="0px" width="32px" height="32px"
	 viewBox="484 484 32 32" enable-background="new 484 484 32 32" xml:space="preserve">
<path d="M500,484c8.831,0,16,7.169,16,16c0,8.831-7.169,16-16,16c-8.831,0-16-7.169-16-16C484,491.169,491.169,484,500,484z
	 M500,490c-2.716,0-3.056,0.012-4.123,0.06c-1.064,0.049-1.792,0.218-2.427,0.465c-0.658,0.256-1.215,0.598-1.771,1.153
	c-0.556,0.556-0.898,1.114-1.153,1.771c-0.247,0.636-0.416,1.363-0.465,2.427c-0.048,1.067-0.06,1.407-0.06,4.123
	s0.012,3.057,0.06,4.123c0.049,1.064,0.218,1.791,0.465,2.428c0.255,0.657,0.598,1.215,1.153,1.771
	c0.556,0.557,1.114,0.898,1.771,1.153c0.636,0.248,1.363,0.417,2.427,0.465c1.067,0.049,1.407,0.061,4.123,0.061
	s3.057-0.012,4.123-0.061c1.064-0.048,1.791-0.217,2.428-0.465c0.657-0.255,1.215-0.597,1.771-1.153
	c0.557-0.556,0.898-1.113,1.153-1.771c0.248-0.637,0.417-1.363,0.465-2.428c0.049-1.066,0.061-1.407,0.061-4.123
	s-0.012-3.056-0.061-4.123c-0.048-1.064-0.217-1.792-0.465-2.427c-0.255-0.658-0.597-1.215-1.153-1.771
	c-0.556-0.556-1.113-0.897-1.771-1.153c-0.637-0.247-1.363-0.416-2.428-0.465C503.057,490.012,502.716,490,500,490z M500,491.802
	c2.67,0,2.986,0.01,4.041,0.059c0.975,0.044,1.504,0.207,1.856,0.344c0.467,0.181,0.8,0.398,1.15,0.748
	c0.35,0.35,0.566,0.683,0.748,1.15c0.137,0.352,0.3,0.881,0.344,1.856c0.049,1.055,0.059,1.371,0.059,4.041s-0.01,2.986-0.059,4.041
	c-0.044,0.975-0.207,1.504-0.344,1.856c-0.182,0.467-0.398,0.8-0.748,1.15c-0.351,0.35-0.684,0.566-1.15,0.748
	c-0.353,0.137-0.882,0.3-1.856,0.344c-1.055,0.049-1.371,0.059-4.041,0.059c-2.67,0-2.986-0.01-4.041-0.059
	c-0.975-0.044-1.504-0.207-1.856-0.344c-0.467-0.182-0.8-0.398-1.15-0.748c-0.35-0.351-0.567-0.684-0.748-1.15
	c-0.137-0.353-0.3-0.882-0.345-1.856c-0.048-1.055-0.058-1.371-0.058-4.041s0.01-2.986,0.058-4.041
	c0.045-0.975,0.208-1.504,0.345-1.856c0.181-0.467,0.398-0.8,0.748-1.15c0.35-0.35,0.683-0.567,1.15-0.748
	c0.352-0.137,0.881-0.3,1.856-0.344C497.014,491.812,497.33,491.802,500,491.802z M500,494.865c-2.836,0-5.135,2.299-5.135,5.135
	s2.299,5.135,5.135,5.135s5.135-2.299,5.135-5.135S502.836,494.865,500,494.865z M500,503.333c-1.841,0-3.333-1.492-3.333-3.333
	s1.493-3.333,3.333-3.333s3.333,1.493,3.333,3.333S501.841,503.333,500,503.333z M506.538,494.662c0,0.663-0.537,1.2-1.2,1.2
	c-0.662,0-1.2-0.537-1.2-1.2c0-0.663,0.538-1.2,1.2-1.2C506.001,493.462,506.538,493.999,506.538,494.662z"/>
</svg>
