<?xml version="1.0" encoding="utf-8"?>
<!-- Generator: Adobe Illustrator 16.0.0, SVG Export Plug-In . SVG Version: 6.00 Build 0)  -->
<!DOCTYPE svg PUBLIC "-//W3C//DTD SVG 1.1//EN" "http://www.w3.org/Graphics/SVG/1.1/DTD/svg11.dtd">
<svg version="1.1" id="Layer_1" xmlns:serif="http://www.serif.com/"
	 xmlns="http://www.w3.org/2000/svg" xmlns:xlink="http://www.w3.org/1999/xlink" x="0px" y="0px" width="32px" height="33px"
	 viewBox="484 483.5 32 33" enable-background="new 484 483.5 32 33" xml:space="preserve">
<path d="M500,484c8.831,0,16,7.169,16,16c0,8.831-7.169,16-16,16c-8.831,0-16-7.169-16-16C484,491.169,491.169,484,500,484z
	 M494.998,508.992v-12.495h-4.154v12.495H494.998z M509.974,508.992v-7.166c0-3.838-2.049-5.623-4.781-5.623
	c-2.204,0-3.19,1.212-3.743,2.063v-1.769h-4.153c0.055,1.172,0,12.495,0,12.495h4.153v-6.979c0-0.373,0.026-0.747,0.137-1.014
	c0.3-0.746,0.983-1.519,2.131-1.519c1.502,0,2.104,1.146,2.104,2.825v6.686H509.974L509.974,508.992z M492.949,490.472
	c-1.421,0-2.35,0.935-2.35,2.159c0,1.199,0.9,2.159,2.294,2.159h0.027c1.449,0,2.35-0.96,2.35-2.159
	C495.244,491.406,494.369,490.472,492.949,490.472L492.949,490.472z"/>
</svg>
