<?xml version="1.0" encoding="utf-8"?>
<!DOCTYPE svg PUBLIC "-//W3C//DTD SVG 1.1//EN" "http://www.w3.org/Graphics/SVG/1.1/DTD/svg11.dtd">
<svg version="1.1" id="Layer_1" xmlns="http://www.w3.org/2000/svg" xmlns:xlink="http://www.w3.org/1999/xlink" x="0px" y="0px"
	 width="1500px" height="1500px" viewBox="0 0 1500 1500" enable-background="new 0 0 1500 1500" xml:space="preserve">
<g id="info">
</g>
<g id="icons">
	<path id="search" fill="#fff" d="M1400,1225l-300-300c56.25-87.5,87.5-187.5,87.5-300c0-312.5-250-562.5-562.5-562.5S62.5,312.5,62.5,625
		s250,562.5,562.5,562.5c112.5,0,212.5-31.25,300-87.5l300,300c25,25,56.25,37.5,87.5,37.5c68.75,0,125-56.25,125-125
		C1437.5,1275,1425,1243.75,1400,1225z M312.5,625c0-175,137.5-312.5,312.5-312.5S937.5,450,937.5,625S800,937.5,625,937.5
		S312.5,800,312.5,625z"/>
</g>
</svg>
