<?xml version="1.0" encoding="utf-8"?>
<!-- Generator: Adobe Illustrator 16.0.0, SVG Export Plug-In . SVG Version: 6.00 Build 0)  -->
<!DOCTYPE svg PUBLIC "-//W3C//DTD SVG 1.1//EN" "http://www.w3.org/Graphics/SVG/1.1/DTD/svg11.dtd">
<svg version="1.1" id="Layer_1" xmlns="http://www.w3.org/2000/svg" xmlns:xlink="http://www.w3.org/1999/xlink" x="0px" y="0px"
	 width="147px" height="24px" viewBox="0 0 147 24" enable-background="new 0 0 147 24" xml:space="preserve">
<g>
	<path fill="#FFFFFF" d="M32.793,3.908c0-0.361,0.293-0.654,0.654-0.654h5.988c2.978,0,5.073,1.856,5.073,4.501
		c0,1.739-0.857,3.189-2.452,3.856c1.81,0.667,2.882,2.215,2.882,4.237c0,2.856-2.142,4.786-5.167,4.786H33.45
		c-0.361,0-0.654-0.293-0.654-0.654V3.908H32.793z M34.175,4.517v6.523h5.476c2.166,0,3.475-1.404,3.475-3.285
		c0-1.834-1.548-3.238-3.714-3.238H34.175z M34.175,12.302v7.073h5.571c2.215,0,3.81-1.523,3.81-3.523
		c0-2.072-1.453-3.549-3.834-3.549H34.175z"/>
	<path fill="#FFFFFF" d="M47.769,19.23c0-2.713,2.572-4.547,4.978-6.262c2.286-1.644,4.477-3.094,4.477-5.214
		c0-2.071-1.548-3.5-4-3.5c-1.802,0-3.15,0.906-4.012,2.244c-0.184,0.286-0.56,0.376-0.857,0.215l-0.049-0.027
		c-0.332-0.179-0.447-0.601-0.247-0.921c1.038-1.646,2.843-2.75,5.141-2.75c3.31,0,5.429,2.095,5.429,4.762
		c0,2.691-2.452,4.406-4.857,6.12c-2.286,1.596-4.548,3.168-4.548,5.334v0.096h8.988c0.361,0,0.654,0.293,0.654,0.654
		s-0.293,0.654-0.654,0.654h-9.786c-0.361,0-0.655-0.293-0.655-0.654V19.23L47.769,19.23z"/>
	<path fill="#FFFFFF" d="M61.985,3.908c0-0.361,0.293-0.654,0.655-0.654h5.988c2.977,0,5.072,1.856,5.072,4.501
		c0,1.739-0.857,3.189-2.452,3.856c1.81,0.667,2.882,2.215,2.882,4.237c0,2.856-2.142,4.786-5.167,4.786h-6.321
		c-0.361,0-0.654-0.293-0.654-0.654V3.908H61.985z M63.365,4.517v6.523h5.476c2.166,0,3.475-1.404,3.475-3.285
		c0-1.834-1.548-3.238-3.715-3.238H63.365z M63.365,12.302v7.073h5.571c2.215,0,3.81-1.523,3.81-3.523
		c0-2.072-1.453-3.549-3.834-3.549H63.365z"/>
	<path fill="#FFFFFF" d="M80.65,17.765l2.182-1.722c0.202-0.161,0.5-0.115,0.646,0.098c0.875,1.266,2.105,1.949,3.551,1.949
		c1.715,0,2.643-1.119,2.643-2.332c0-1.454-1.785-1.93-3.619-2.502c-2.356-0.762-4.928-1.643-4.928-4.953
		c0-2.787,2.43-4.977,5.761-4.977c2.542,0,4.132,0.892,5.458,2.151c0.201,0.191,0.184,0.516-0.036,0.684l-1.893,1.436
		c-0.193,0.146-0.47,0.112-0.623-0.078c-0.718-0.882-1.678-1.314-2.884-1.314c-1.596,0-2.431,0.857-2.431,1.976
		c0,1.404,1.644,1.81,3.549,2.452c2.356,0.762,5.023,1.81,5.023,5.143c0,2.737-2.19,5.405-6.001,5.405
		c-2.906,0-4.9-1.158-6.451-2.76C80.419,18.236,80.443,17.928,80.65,17.765z"/>
	<path fill="#FFFFFF" d="M93.526,7.02h1.899c0.018,0,0.032-0.015,0.032-0.032V5.136c0-0.149,0.073-0.288,0.195-0.371l2.34-1.6
		c0.298-0.203,0.703,0.01,0.703,0.371v3.451c0,0.017,0.015,0.032,0.032,0.032h2.354c0.249,0,0.449,0.2,0.449,0.449v1.983
		c0,0.25-0.2,0.45-0.449,0.45h-2.354c-0.018,0-0.032,0.015-0.032,0.032v5.184c0,2.277,0.315,2.756,2.394,2.807
		c0.244,0.005,0.439,0.205,0.439,0.449v2.133c0,0.246-0.2,0.449-0.449,0.449h-0.002c-4.311,0-5.62-1.381-5.62-5.811V9.938
		c0-0.017-0.015-0.032-0.032-0.032h-1.899c-0.249,0-0.449-0.2-0.449-0.45V7.474C93.077,7.22,93.279,7.02,93.526,7.02z"/>
	<path fill="#FFFFFF" d="M102.15,13.994c0-4.618,3.382-7.263,6.904-7.263c1.801,0,3.396,0.713,4.422,1.89
		c0.02,0.022,0.054,0.01,0.054-0.02V7.467c0-0.247,0.2-0.45,0.45-0.45h2.314c0.249,0,0.449,0.2,0.449,0.45v13.031
		c0,0.249-0.2,0.449-0.449,0.449h-2.314c-0.25,0-0.45-0.2-0.45-0.449v-1.274c0-0.029-0.036-0.042-0.054-0.02
		c-1.028,1.27-2.67,2.026-4.47,2.026C105.648,21.233,102.15,18.566,102.15,13.994z M113.695,13.906
		c-0.019-2.361-1.774-4.244-4.165-4.244c-2.382,0-4.216,1.88-4.216,4.286c0,2.12,1.397,3.842,3.336,4.245
		C111.307,18.742,113.721,16.615,113.695,13.906z"/>
	<path fill="#FFFFFF" d="M118.124,13.994c0-4.071,3.168-7.263,7.239-7.263c2.936,0,5.279,1.583,6.439,3.871
		c0.117,0.232,0.016,0.518-0.227,0.618l-2.057,0.867c-0.215,0.09-0.461,0-0.571-0.205c-0.701-1.309-1.99-2.13-3.562-2.13
		c-2.355,0-4.119,1.88-4.119,4.238c0,2.311,1.764,4.215,4.142,4.215c1.659,0,2.897-0.898,3.586-2.223
		c0.106-0.207,0.358-0.295,0.573-0.203l2.059,0.885c0.237,0.103,0.34,0.383,0.225,0.615c-1.166,2.34-3.438,3.947-6.49,3.947
		C121.292,21.233,118.124,17.995,118.124,13.994z"/>
	<path fill="#FFFFFF" d="M133.718,3.329h2.315c0.249,0,0.449,0.2,0.449,0.449v9.874c0,0.029,0.033,0.041,0.054,0.02l5.741-6.501
		c0.086-0.098,0.207-0.151,0.338-0.151h2.652c0.388,0,0.592,0.459,0.334,0.747l-4.696,5.259c-0.011,0.01-0.011,0.026-0.003,0.039
		l5.059,7.178c0.21,0.297-0.003,0.707-0.367,0.707h-2.496c-0.146,0-0.285-0.072-0.369-0.192l-4.01-5.778
		c-0.012-0.018-0.033-0.018-0.049-0.002l-2.18,2.415c-0.006,0.005-0.008,0.013-0.008,0.02v3.087c0,0.249-0.2,0.449-0.449,0.449
		h-2.315c-0.249,0-0.45-0.2-0.45-0.449V3.776C133.268,3.529,133.469,3.329,133.718,3.329z"/>
	<path fill="#FFFFFF" d="M15.891,7.515l-6.88,1.773c-2.853,0.718-1.29,3.717,0.046,3.519c1.05-0.158,1.841,0.066,2.347,0.525
		c0.442,0.523,0.642,1.318,0.449,2.364c-0.242,1.329,2.704,2.987,3.514,0.161l1.998-6.818c0.134-0.457,0.005-0.899-0.271-1.211
		C16.792,7.54,16.352,7.395,15.891,7.515z"/>
	<path fill="#FFFFFF" d="M21.629,10.61h2.887c0.269,0,0.477-0.237,0.435-0.5c-0.789-5.202-4.902-9.315-10.104-10.104
		c-0.264-0.039-0.501,0.168-0.501,0.435v2.887c0,0.21,0.149,0.388,0.354,0.43c3.265,0.667,5.834,3.236,6.501,6.501
		C21.241,10.463,21.419,10.61,21.629,10.61z"/>
	<path fill="#FFFFFF" d="M12.892,20.281c-4.484-0.068-8.147-3.732-8.216-8.216c-0.063-4.093,2.821-7.524,6.67-8.309
		c0.205-0.042,0.354-0.22,0.354-0.43V0.44c0-0.269-0.237-0.476-0.503-0.435C5.32,0.896,0.836,6.025,0.959,12.175
		c0.127,6.452,5.37,11.696,11.822,11.823c6.152,0.119,11.278-4.365,12.17-10.238c0.039-0.264-0.168-0.503-0.435-0.503H21.63
		c-0.21,0-0.389,0.149-0.43,0.354C20.414,17.46,16.984,20.344,12.892,20.281z"/>
</g>
</svg>
