<?xml version="1.0" encoding="utf-8"?>
<!-- Generator: Adobe Illustrator 16.0.0, SVG Export Plug-In . SVG Version: 6.00 Build 0)  -->
<!DOCTYPE svg PUBLIC "-//W3C//DTD SVG 1.1//EN" "http://www.w3.org/Graphics/SVG/1.1/DTD/svg11.dtd">
<svg version="1.1" id="stars-icon" xmlns="http://www.w3.org/2000/svg" xmlns:xlink="http://www.w3.org/1999/xlink" x="0px" y="0px"
	 width="32px" height="62px" viewBox="0 0 32 62" enable-background="new 0 0 32 62" xml:space="preserve">
<polygon fill="#DB9200" points="16,25.544 6.731,31 8.8,20.043 1,12.459 11.551,11.144 16,1 20.451,11.144 31,12.459 23.199,20.043 
	25.27,31 "/>
<path fill="#DB9200" d="M15.999,55.597l-9.248,5.486l2.065-11.017l-7.782-7.627l10.525-1.323l4.439-10.2l4.439,10.2l10.526,1.323
	l-7.782,7.627l2.065,11.017L15.999,55.597z M15.999,52.411l5.569,3.303l-1.245-6.632l4.687-4.593l-6.338-0.796l-2.673-6.142
	l-2.672,6.142l-6.338,0.796l4.686,4.593l-1.244,6.632L15.999,52.411z"/>
</svg>
