<svg version="1.1" id="stamp" xmlns="http://www.w3.org/2000/svg" xmlns:xlink="http://www.w3.org/1999/xlink" x="0px" y="0px"
	 width="24px" height="24px" viewBox="0 0 24 24" enable-background="new 0 0 24 24" xml:space="preserve">
<path d="M24,12c0-0.991-1.943-1.714-2.188-2.63c-0.253-0.946,1.063-2.543,0.582-3.371c-0.485-0.841-2.531-0.497-3.212-1.179
	c-0.684-0.681-0.339-2.727-1.179-3.214c-0.828-0.479-2.426,0.837-3.373,0.583C13.716,1.945,12.992,0,12.001,0
	c-0.992,0-1.715,1.945-2.63,2.189C8.425,2.443,6.827,1.127,5.999,1.606C5.158,2.093,5.503,4.137,4.82,4.82S2.092,5.158,1.606,5.998
	C1.127,6.827,2.443,8.424,2.189,9.37C1.945,10.286,0,11.009,0,12s1.945,1.715,2.189,2.63c0.254,0.946-1.063,2.544-0.583,3.372
	c0.485,0.841,2.531,0.496,3.214,1.178c0.682,0.683,0.337,2.728,1.179,3.214c0.828,0.48,2.426-0.836,3.372-0.583
	C10.285,22.055,11.008,24,12.001,24c0.991,0,1.715-1.945,2.629-2.189c0.946-0.253,2.543,1.063,3.372,0.583
	c0.841-0.486,0.496-2.531,1.179-3.214c0.682-0.682,2.728-0.337,3.213-1.178c0.48-0.828-0.835-2.426-0.582-3.372
	C22.057,13.715,24,12.991,24,12z M10.266,16.448l-3.795-3.795l1.634-1.635l2.161,2.161l5.628-5.628l1.635,1.635L10.266,16.448z"/>
</svg>
